<svg width="30" height="30" viewBox="0 0 280 248" fill="none" xmlns="http://www.w3.org/2000/svg">
    <path d="M118.834 145.646C120.019 145.646 120.019 145.646 120.019 144.456C120.019 142.373 120.019 140.29 120.019 138.208C120.019 137.315 120.315 137.017 121.204 137.017C123.427 137.166 125.501 137.017 127.724 137.166C128.465 137.166 128.465 136.72 128.465 136.125C128.317 134.042 128.465 131.81 128.465 129.728C128.465 128.389 128.613 128.389 129.798 128.389C134.836 128.389 139.874 128.389 144.912 128.389C145.505 128.389 145.653 128.24 145.653 127.645C145.653 125.413 145.653 123.182 145.653 120.95C145.653 120.206 145.949 119.909 146.69 119.909C154.543 119.909 162.396 119.909 170.249 119.909C170.99 119.909 171.286 119.76 171.286 119.016C171.286 116.933 171.286 114.702 171.286 112.619C171.286 111.875 171.138 111.726 170.397 111.726C168.175 111.726 166.1 111.726 163.878 111.726C162.692 111.726 162.544 111.578 162.544 110.388C162.544 108.305 162.544 106.371 162.544 104.288C162.544 103.544 162.248 103.247 161.507 103.247C159.433 103.247 157.506 103.247 155.432 103.247C154.098 103.247 154.098 103.098 153.95 101.759C153.95 99.6761 153.95 97.5933 153.95 95.5105C153.95 94.7666 153.802 94.4691 152.913 94.4691C150.839 94.6179 148.764 94.4691 146.69 94.4691C146.097 94.4691 145.653 94.1716 145.653 93.4277C145.653 91.0474 145.653 88.5183 145.653 86.138C145.653 85.3941 146.097 85.2453 146.69 85.2453C148.764 85.2453 150.839 85.2453 152.913 85.2453C154.395 85.2453 154.395 85.0966 154.395 83.7576C154.395 81.9724 154.395 80.1872 154.395 78.2531C154.395 77.5093 154.691 77.063 155.432 77.063C162.1 77.063 168.916 77.063 175.583 77.063C176.621 77.063 177.658 77.063 178.695 77.063C179.732 77.063 179.88 76.7654 179.88 75.724C179.88 73.79 179.88 71.7073 179.88 69.7732C179.88 68.5831 180.028 68.5831 181.066 68.5831C185.807 68.5831 190.549 68.5831 195.438 68.5831C196.772 68.5831 196.92 68.4343 196.92 67.0954C196.92 65.1614 196.92 63.0786 196.92 61.1446C196.92 60.2519 197.216 60.1032 198.105 60.1032C200.032 60.1032 202.106 60.1032 204.032 60.1032C204.921 60.1032 205.218 60.4007 205.218 61.2933C205.218 63.2273 205.218 65.3101 205.218 67.2441C205.218 68.2855 205.366 68.4343 206.403 68.4343C208.477 68.4343 210.552 68.4343 212.626 68.4343C213.515 68.4343 213.812 68.7318 213.812 69.6245C213.812 71.856 213.812 73.9388 213.812 76.1704C213.812 76.7654 213.96 77.063 214.701 77.063C216.923 77.063 218.998 77.063 221.22 77.063C222.257 77.063 222.406 77.2117 222.406 78.4019C222.406 83.1626 222.406 87.9232 222.406 92.8326C222.406 94.1716 222.406 94.1716 223.739 94.1716C225.813 94.1716 227.888 94.1716 229.962 94.1716C230.555 94.1716 230.851 94.0228 230.851 93.4277C230.851 92.2375 230.851 91.1962 230.851 90.006C230.851 77.5093 230.851 65.1614 230.851 52.6647C230.851 51.3257 230.851 51.3257 232.185 51.3257C234.259 51.3257 236.186 51.3257 238.26 51.3257C239.149 51.3257 239.445 51.0282 239.445 50.1356C239.445 48.0528 239.445 46.1188 239.445 44.036C239.445 42.8458 239.593 42.6971 240.779 42.6971C242.853 42.6971 244.928 42.6971 247.002 42.6971C247.743 42.6971 248.039 42.3995 248.039 41.6557C248.039 39.4241 248.039 37.3413 248.039 35.1098C248.039 34.2172 248.336 33.9196 249.225 33.9196C251.299 33.9196 253.373 33.9196 255.448 33.9196C256.337 33.9196 256.633 33.6221 256.485 32.7295C256.485 30.6467 256.485 28.7127 256.485 26.6299C256.485 25.886 256.337 25.5885 255.448 25.5885C250.558 25.5885 245.52 25.5885 240.631 25.5885C239.593 25.5885 239.445 25.4397 239.445 24.3983C239.445 22.4643 239.445 20.3815 239.445 18.4475C239.445 17.2573 239.297 17.1086 238.112 17.1086C236.037 17.1086 234.111 17.1086 232.037 17.1086C231.148 17.1086 230.851 16.811 230.851 15.9184C230.851 13.8356 230.851 11.6041 230.851 9.5213C230.851 8.77744 230.555 8.4799 229.814 8.4799C227.888 8.4799 225.813 8.4799 223.887 8.4799C222.406 8.4799 222.406 8.4799 222.406 6.9922C222.406 5.05819 222.406 2.9754 222.406 1.04139C222.406 0.297541 222.109 0 221.368 0C210.7 0 200.032 0 189.363 0C188.622 0 188.326 0.297541 188.326 1.04139C188.326 3.27295 188.326 5.35573 188.326 7.58728C188.326 8.33113 188.03 8.62867 187.289 8.62867C185.066 8.62867 182.844 8.62867 180.769 8.62867C180.028 8.62867 179.88 8.92621 179.88 9.5213C179.88 11.6041 179.88 13.8356 179.88 15.9184C179.88 16.6623 180.028 16.9598 180.917 16.9598C185.807 16.9598 190.697 16.9598 195.586 16.9598C196.624 16.9598 196.772 17.1086 196.772 18.15C196.772 20.2328 196.772 22.1668 196.772 24.2495C196.772 25.1422 197.068 25.4397 197.957 25.4397C200.032 25.4397 202.106 25.4397 204.18 25.4397C205.069 25.4397 205.366 25.7373 205.366 26.6299C205.366 28.7127 205.366 30.6467 205.366 32.7295C205.366 33.7708 205.514 33.9196 206.551 33.9196C208.626 33.9196 210.552 33.9196 212.626 33.9196C213.96 33.9196 214.108 33.7708 213.96 32.4319C213.96 30.4979 213.96 28.4151 213.96 26.4811C213.96 25.886 214.256 25.5885 214.849 25.5885C216.923 25.5885 218.998 25.5885 221.072 25.5885C221.665 25.5885 221.961 25.7373 221.961 26.4811C221.961 28.5639 221.961 30.4979 221.961 32.5807C221.961 33.4733 222.109 33.7708 223.146 33.7708C224.776 33.7708 226.406 33.7708 228.036 33.7708C231.296 33.7708 230.851 33.4733 230.851 36.5975C230.851 38.234 230.851 39.7217 230.851 41.3581C230.851 42.2507 230.555 42.5483 229.666 42.5483C227.592 42.5483 225.517 42.5483 223.443 42.5483C222.554 42.5483 222.406 42.8458 222.406 43.5897C222.406 45.6725 222.406 47.7552 222.406 49.838C222.406 50.7307 222.109 51.0282 221.22 51.0282C210.552 51.0282 199.883 51.0282 189.215 51.0282C188.326 51.0282 188.03 50.7307 188.03 49.838C188.03 47.7552 188.03 45.6725 188.03 43.5897C188.03 42.6971 187.733 42.3995 186.844 42.3995C184.77 42.3995 182.844 42.3995 180.769 42.3995C179.584 42.3995 179.436 42.2507 179.436 41.0606C179.436 38.9778 179.436 36.895 179.436 34.8122C179.436 34.0684 179.139 33.7708 178.399 33.7708C176.324 33.7708 174.102 33.7708 172.027 33.7708C171.138 33.7708 170.842 33.4733 170.842 32.5807C170.842 30.4979 170.842 28.2663 170.842 26.1836C170.842 25.5885 170.694 25.2909 170.101 25.2909C167.878 25.2909 165.656 25.2909 163.433 25.2909C162.692 25.2909 162.544 25.5885 162.544 26.3323C162.544 28.4151 162.544 30.6467 162.544 32.7295C162.544 33.4733 162.248 33.7708 161.359 33.7708C159.284 33.7708 157.062 33.7708 154.987 33.7708C154.247 33.7708 153.95 34.0684 153.95 34.8122C153.95 36.895 153.95 39.1266 153.95 41.2094C153.95 42.102 153.654 42.3995 152.765 42.3995C150.69 42.3995 148.616 42.3995 146.542 42.3995C145.653 42.3995 145.504 42.6971 145.504 43.5897C145.504 45.6725 145.504 47.6065 145.504 49.6893C145.504 50.8794 145.356 51.0282 144.023 51.0282C141.948 51.0282 139.874 51.0282 137.8 51.0282C137.059 51.0282 136.762 51.3257 136.762 52.0696C136.762 54.1524 136.762 56.2351 136.762 58.3179C136.762 59.5081 136.614 59.5081 135.429 59.5081C133.354 59.5081 131.28 59.5081 129.206 59.5081C128.317 59.5081 128.168 59.8056 128.168 60.5495C128.168 62.6323 128.168 64.715 128.168 66.7978C128.168 67.988 128.02 68.1368 126.835 68.1368C124.76 68.1368 122.834 68.1368 120.76 68.1368C119.871 68.1368 119.574 68.4343 119.574 69.3269C119.574 71.4097 119.574 73.4925 119.574 75.5753C119.574 76.7654 119.426 76.9142 118.241 76.9142C116.167 76.9142 114.092 76.9142 112.018 76.9142C111.277 76.9142 110.981 77.063 110.981 77.9556C110.981 80.0384 110.981 82.1212 110.981 84.2039C110.981 85.0966 110.684 85.3941 109.795 85.3941C107.721 85.3941 105.498 85.3941 103.424 85.3941C102.683 85.3941 102.535 85.6917 102.535 86.2867C102.535 88.5183 102.535 90.7498 102.535 92.9814C102.535 93.7253 102.238 94.0228 101.498 94.0228C99.4231 94.0228 97.3487 94.0228 95.2743 94.0228C94.089 94.0228 93.9408 94.1716 94.089 95.213C94.089 97.2957 94.089 99.3785 94.089 101.461C94.089 102.354 94.3853 102.651 95.2743 102.503C97.3487 102.503 99.275 102.503 101.349 102.503C101.942 102.503 102.238 102.8 102.238 103.395C102.238 105.478 102.238 107.561 102.238 109.644C102.238 110.239 101.942 110.536 101.349 110.536C99.1268 110.536 97.0524 110.536 94.8298 110.536C94.089 110.536 94.089 109.941 94.089 109.495C94.089 107.412 94.089 105.329 94.089 103.247C94.089 102.651 93.9408 102.354 93.3481 102.354C90.9773 102.354 88.6066 102.354 86.2359 102.354C85.6432 102.354 85.495 102.651 85.495 103.247C85.495 105.627 85.495 107.858 85.495 110.239C85.495 110.834 85.3468 110.983 84.7541 110.983C82.5316 110.983 80.309 110.983 78.0864 110.983C77.1974 110.983 77.0492 111.28 77.0492 112.173C77.0492 114.256 77.0492 116.338 77.0492 118.421C77.0492 119.611 77.0492 119.611 75.7157 119.611C70.826 119.611 65.7882 119.611 60.8985 119.611C60.0095 119.611 59.8613 119.909 59.8613 120.653C59.8613 122.884 59.8613 125.116 59.8613 127.347C59.8613 128.091 59.7131 128.24 58.9723 128.24C56.7497 128.24 54.6753 128.24 52.4527 128.24C51.7119 128.24 51.4155 128.537 51.4155 129.281C51.4155 131.513 51.4155 133.744 51.4155 135.976C51.4155 136.72 51.2674 136.869 50.5265 136.869C45.4887 136.869 40.4508 136.869 35.413 136.869C34.3758 136.869 34.2276 137.166 34.2276 138.059C34.2276 140.588 34.2276 143.117 34.2276 145.497C31.5605 145.2 29.0416 145.349 26.3745 145.349C25.7819 145.349 25.7819 145.944 25.7819 146.39C25.7819 148.621 25.7819 150.704 25.7819 152.936C25.7819 153.828 25.6337 153.977 24.7447 153.977C19.855 153.977 14.8172 153.977 9.77932 153.977C8.59395 153.977 8.59395 153.977 8.59395 155.167C8.59395 157.399 8.59395 159.63 8.59395 161.862C8.59395 162.457 8.44578 162.606 7.85309 162.457C5.63052 162.457 3.40795 162.457 1.0372 162.457C0.296343 162.457 0 162.606 0 163.498C0 165.73 0 167.813 0 170.044C0 170.788 0.148172 170.937 0.88903 170.937C3.1116 170.937 5.18601 170.937 7.40858 170.937C8.29761 170.937 8.59395 171.235 8.44578 172.127C8.44578 174.21 8.44578 176.441 8.44578 178.524C8.44578 179.268 8.59395 179.566 9.48298 179.566C11.5574 179.566 13.6318 179.566 15.7062 179.566C16.8916 179.566 17.0397 179.714 17.0397 180.905C17.0397 182.987 17.0397 184.921 17.0397 187.004C17.0397 187.897 17.3361 188.194 18.2251 188.194C20.1513 188.194 22.2257 188.194 24.152 188.194C25.041 188.194 25.3373 187.897 25.1892 187.153C25.1892 185.07 25.1892 182.987 25.1892 180.905C25.1892 179.714 25.3373 179.566 26.5227 179.566C28.5971 179.566 30.5233 179.566 32.5977 179.566C33.4868 179.566 33.7831 179.268 33.7831 178.376C33.7831 176.293 33.7831 174.21 33.7831 172.127C33.7831 171.235 34.0795 170.937 34.9685 170.937C39.8582 170.937 44.896 170.937 49.7856 171.086C50.6747 171.086 50.8228 170.788 50.8228 170.044C50.8228 167.962 50.8228 165.73 50.8228 163.647C50.8228 162.755 51.1192 162.457 52.0082 162.457C54.0826 162.457 56.157 162.457 58.2314 162.457C59.1205 162.457 59.4168 162.16 59.4168 161.267C59.4168 159.333 59.4168 157.25 59.4168 155.316C59.4168 153.977 59.4168 153.977 60.7503 153.977C68.3071 153.977 76.012 153.977 83.5688 153.977C84.9023 153.977 84.9023 153.977 84.9023 152.638C84.9023 150.704 84.9023 148.621 84.9023 146.687C84.9023 145.497 85.0505 145.349 86.2359 145.349C97.6451 145.646 108.313 145.646 118.834 145.646ZM104.461 94.4691C106.387 94.4691 108.462 94.4691 110.388 94.4691C111.129 94.4691 111.425 94.7666 111.425 95.5105C111.425 97.5933 111.425 99.5273 111.425 101.61C111.425 102.354 111.129 102.8 110.388 102.8C108.313 102.8 106.387 102.8 104.313 102.8C103.572 102.8 103.276 102.503 103.276 101.759C103.276 100.717 103.276 99.8248 103.276 98.7834C103.276 97.7421 103.276 96.8494 103.276 95.808C103.127 94.7666 103.572 94.4691 104.461 94.4691ZM51.7119 152.936C51.7119 153.977 51.5637 154.275 50.3783 154.275C48.3039 154.275 46.3777 154.275 44.3033 154.275C43.2661 154.275 43.1179 154.572 43.1179 155.614C43.1179 157.696 43.1179 159.63 43.1179 161.713C43.1179 162.606 42.6734 162.903 41.9326 162.903C39.8582 162.903 37.7838 162.903 35.7094 162.903C34.8203 162.903 34.524 163.201 34.524 163.945C34.524 165.879 34.524 167.813 34.524 169.747C34.524 171.235 34.524 171.383 32.8941 171.383C30.5233 171.383 28.1526 171.383 25.93 171.383C20.744 171.383 15.7062 171.383 10.5202 171.383C9.33481 171.383 9.18664 171.235 9.18664 170.044C9.18664 168.259 9.18664 166.474 9.18664 164.54C9.18664 163.201 9.33481 163.052 10.6684 163.052C15.2617 163.052 20.0032 163.052 24.5965 163.052C26.2264 163.052 26.2264 162.903 26.2264 161.267C26.2264 159.482 26.2264 157.548 26.2264 155.762C26.2264 154.721 26.6709 154.423 27.7081 154.423C29.6343 154.423 31.7087 154.423 33.6349 154.423C34.2276 154.423 34.6721 154.126 34.6721 153.531C34.6721 151.002 34.6721 148.473 34.6721 146.092C35.1167 146.092 35.413 145.944 35.8575 145.944C40.7472 145.944 45.6368 145.944 50.5265 145.944C51.4155 145.944 51.5637 146.241 51.5637 147.134C51.7119 148.919 51.7119 150.853 51.7119 152.936ZM59.4168 145.646C58.3796 145.646 57.3424 145.646 56.3052 145.646C55.268 145.646 54.379 145.646 53.3418 145.646C52.3046 145.646 52.1564 145.349 52.1564 144.307C52.1564 142.373 52.1564 140.439 52.1564 138.356C52.1564 137.612 52.4527 137.166 53.1936 137.166C55.268 137.166 57.4906 137.166 59.565 137.166C60.1577 137.166 60.6022 137.464 60.6022 138.059C60.6022 140.142 60.6022 142.373 60.6022 144.456C60.3058 145.349 60.0095 145.646 59.4168 145.646ZM67.7144 137.166C65.64 137.166 63.5656 137.166 61.4912 137.166C60.7503 137.166 60.454 136.869 60.454 136.125C60.454 134.042 60.454 132.108 60.454 130.025C60.454 129.133 60.8985 128.686 61.7875 128.835C63.862 128.984 65.7882 128.984 67.8626 128.984C68.6034 128.984 68.7516 129.281 68.7516 130.025C68.7516 131.067 68.7516 132.108 68.7516 133.149C68.7516 134.191 68.7516 135.232 68.7516 136.274C68.7516 136.869 68.4553 137.166 67.7144 137.166ZM85.9395 127.199C85.9395 127.942 85.6432 128.24 84.9023 128.24C83.8651 128.24 82.8279 128.24 81.7907 128.24C80.7535 128.24 79.5681 128.24 78.5309 128.24C77.9382 128.24 77.6419 127.942 77.6419 127.347C77.6419 125.265 77.6419 123.182 77.6419 121.099C77.6419 120.355 78.0864 120.058 78.8273 120.058C80.9017 120.058 82.9761 120.058 85.0505 120.058C85.7913 120.058 86.0877 120.355 86.0877 121.099C85.9395 123.182 85.9395 125.265 85.9395 127.199ZM86.0877 118.867C86.0877 117.826 86.0877 116.933 86.0877 115.892C86.0877 114.851 86.0877 113.809 86.0877 112.768C86.0877 112.024 86.384 111.578 87.1249 111.578C89.1993 111.578 91.2737 111.578 93.3481 111.578C93.9408 111.578 94.2371 111.875 94.2371 112.47C94.2371 114.702 94.2371 116.785 94.2371 119.016C94.2371 119.611 93.9408 119.909 93.3481 119.909C91.2737 119.909 89.1993 119.909 87.1249 119.909C86.384 119.909 86.0877 119.463 86.0877 118.867Z"
          fill="#235071"/>
    <path d="M266.412 154.424C265.375 154.424 265.227 154.275 265.227 153.085C265.227 151.002 265.227 148.919 265.227 146.836C265.227 145.944 264.931 145.646 264.041 145.646C261.374 145.646 258.707 145.646 256.04 145.646C251.002 145.646 245.965 145.646 240.927 145.646C239.741 145.646 239.741 145.646 239.741 146.836C239.741 151.597 239.741 156.506 239.741 161.267C239.741 162.755 239.741 162.755 238.26 162.755C236.333 162.755 234.407 162.755 232.481 162.755C230.999 162.755 230.851 162.606 230.851 160.969C230.851 157.399 230.851 153.68 230.851 150.109C230.851 148.919 230.851 147.729 230.851 146.687C230.851 145.944 230.555 145.497 229.814 145.646C227.888 145.646 225.813 145.646 223.887 145.646C222.405 145.646 222.405 145.646 222.405 144.158C222.405 142.076 222.405 140.142 222.405 138.059C222.405 137.315 222.109 137.017 221.368 137.017C219.294 137.017 217.219 137.017 215.145 137.017C214.404 137.017 214.108 137.166 214.108 137.91C214.108 145.646 214.108 153.531 214.108 161.267C214.108 162.16 214.404 162.457 215.293 162.457C217.367 162.457 219.442 162.457 221.516 162.457C222.553 162.457 222.85 162.606 222.85 163.647C222.85 168.557 222.85 173.615 222.85 178.524C222.85 179.714 222.553 179.863 221.516 179.863C219.442 179.863 217.516 179.863 215.441 179.863C214.552 179.863 214.256 180.161 214.256 181.053C214.256 185.963 214.256 190.723 214.256 195.633C214.256 196.823 214.108 196.972 212.922 196.972C210.848 196.972 208.773 196.972 206.699 196.972C205.662 196.972 205.514 196.823 205.514 195.633C205.514 193.55 205.514 191.467 205.514 189.385C205.514 188.641 205.366 188.343 204.477 188.343C196.772 188.343 189.067 188.343 181.362 188.343C179.88 188.343 179.88 188.343 179.88 186.855C179.88 184.921 179.88 182.839 179.88 180.905C179.88 180.161 179.584 179.863 178.843 179.863C176.768 179.863 174.842 179.863 172.768 179.863C171.434 179.863 171.434 179.863 171.434 178.524C171.434 176.442 171.434 174.507 171.434 172.425C171.434 171.681 171.286 171.235 170.397 171.235C168.323 171.235 166.1 171.235 164.026 171.235C163.137 171.235 162.84 170.937 162.84 170.044C162.84 167.813 162.84 165.581 162.84 163.35C162.84 162.606 163.137 162.308 163.878 162.308C165.952 162.308 168.174 162.308 170.249 162.308C171.138 162.308 171.434 162.011 171.434 161.118C171.434 159.035 171.434 157.101 171.434 155.019C171.434 153.828 171.434 153.828 170.249 153.828C168.619 153.828 166.989 153.828 165.359 153.828C156.617 153.828 148.023 153.828 139.281 153.828C138.985 153.828 138.688 153.828 138.392 153.828C137.799 153.828 137.651 154.126 137.651 154.721C137.651 159.928 137.651 164.986 137.651 170.193C137.651 170.937 137.947 171.086 138.54 171.086C140.615 171.086 142.541 171.086 144.615 171.086C146.245 171.086 146.245 171.086 146.245 172.722C146.245 174.656 146.245 176.59 146.245 178.524C146.245 179.417 146.541 179.714 147.43 179.566C149.505 179.566 151.579 179.566 153.654 179.566C154.395 179.566 154.839 179.863 154.839 180.607C154.839 185.665 154.839 190.723 154.839 195.782C154.839 196.674 154.395 196.972 153.654 196.972C151.579 196.972 149.505 196.972 147.43 196.972C146.541 196.972 146.245 197.269 146.245 198.162C146.245 202.923 146.245 207.832 146.245 212.593C146.245 214.08 146.097 214.08 144.763 214.08C137.207 214.08 129.65 214.08 121.945 214.08C120.611 214.08 120.611 214.08 120.611 215.419C120.611 217.353 120.611 219.287 120.611 221.221C120.611 222.56 120.463 222.709 119.13 222.709C108.758 222.709 98.3857 222.709 88.0137 222.709C86.3838 222.709 86.3838 222.709 86.3838 224.346C86.3838 226.131 86.3838 227.916 86.3838 229.85C86.3838 230.743 86.6801 231.04 87.5692 230.891C89.6436 230.891 91.718 230.891 93.7924 230.891C94.6814 230.891 94.9777 231.338 94.9777 232.082C94.9777 234.016 94.9777 236.098 94.9777 238.032C94.9777 239.223 95.1259 239.371 96.3113 239.371C98.2375 239.371 100.164 239.371 102.09 239.371C103.424 239.371 103.572 239.52 103.572 240.859C103.572 242.793 103.572 244.876 103.572 246.81C103.572 247.702 103.72 248 104.609 248C112.314 248 119.871 248 127.575 248C128.761 248 128.761 248 128.761 246.661C128.761 244.727 128.761 242.644 128.761 240.71C128.761 239.52 128.909 239.371 130.243 239.371C134.984 239.371 139.874 239.371 144.615 239.371C145.801 239.371 145.949 239.371 145.949 238.181C145.949 236.247 145.949 234.313 145.949 232.379C145.949 230.891 145.949 230.743 147.579 230.743C153.95 230.743 160.321 230.743 166.841 230.743C168.174 230.743 169.508 230.743 170.842 230.743C171.434 230.743 171.582 230.445 171.582 229.85C171.582 227.767 171.582 225.684 171.582 223.602C171.582 222.263 171.582 222.263 172.916 222.263C180.621 222.263 188.326 222.263 196.179 222.263C197.068 222.263 197.364 221.965 197.216 221.073C197.216 218.99 197.216 217.056 197.216 214.973C197.216 213.634 197.216 213.634 198.55 213.634C202.55 213.634 206.699 213.634 210.7 213.634C211.885 213.634 213.07 213.634 214.404 213.634C219.738 213.634 225.072 213.634 230.407 213.634C231.147 213.634 231.296 213.188 231.296 212.593C231.296 210.659 231.296 208.576 231.296 206.642C231.296 205.303 231.444 205.154 232.777 205.154C240.334 205.154 248.039 205.154 255.596 205.154C256.781 205.154 256.781 205.154 256.781 203.964C256.781 202.03 256.781 199.947 256.781 198.013C256.781 197.269 256.485 196.823 255.744 196.972C253.669 196.972 251.595 196.972 249.521 196.972C248.483 196.972 248.335 196.823 248.335 195.633C248.335 193.699 248.335 191.616 248.335 189.682C248.335 188.492 248.335 188.492 247.15 188.343C242.408 188.343 237.667 188.343 232.777 188.343C231.444 188.343 231.296 188.194 231.296 186.855C231.296 184.773 231.296 182.839 231.296 180.756C231.296 179.714 231.444 179.417 232.629 179.417C234.704 179.417 236.778 179.417 238.852 179.417C239.593 179.417 239.89 179.268 239.89 178.376C239.89 176.293 239.89 174.21 239.89 172.127C239.89 170.937 240.038 170.788 241.223 170.788C245.965 170.788 250.854 170.788 255.596 170.788C256.929 170.788 256.929 170.788 256.929 169.449C256.929 167.515 256.929 165.433 256.929 163.498C256.929 162.308 257.226 162.16 258.263 162.16C263.004 162.16 267.894 162.16 272.635 162.16C273.969 162.16 273.969 162.16 273.969 160.821C273.969 158.887 273.969 156.804 273.969 154.87C273.969 154.126 273.673 153.828 272.932 153.828C270.561 154.424 268.487 154.424 266.412 154.424Z"
          fill="#235071"/>
    <path d="M222.406 95.5105C222.406 94.3203 222.258 94.1715 221.22 94.1715C219.146 94.1715 216.923 94.1715 214.849 94.1715C214.108 94.1715 213.96 94.4691 213.96 95.0642C213.96 100.271 213.96 105.329 213.96 110.536C213.96 111.131 214.256 111.28 214.849 111.28C217.072 111.28 219.294 111.28 221.517 111.28C222.258 111.28 222.554 110.983 222.554 110.239C222.554 107.71 222.554 105.181 222.554 102.651C222.406 100.271 222.406 97.8908 222.406 95.5105Z"
          fill="#E9C716"/>
    <path d="M206.254 128.389C208.477 128.389 210.848 128.389 213.07 128.389C213.663 128.389 213.959 128.091 213.959 127.496C213.959 122.438 213.959 117.38 213.959 112.321C213.959 111.578 213.663 111.28 212.922 111.28C210.7 111.28 208.625 111.28 206.403 111.28C205.81 111.28 205.514 111.429 205.514 112.173C205.514 114.702 205.514 117.231 205.514 119.909C205.514 122.438 205.514 124.967 205.514 127.496C205.365 128.091 205.514 128.389 206.254 128.389Z"
          fill="#E9C716"/>
    <path d="M186.993 145.646C182.103 145.646 177.213 145.646 172.324 145.646C171.435 145.646 171.286 146.092 171.286 146.836C171.286 148.919 171.286 151.002 171.286 153.085C171.286 153.977 171.731 154.126 172.324 154.126C174.843 154.126 177.213 154.126 179.732 154.126C182.251 154.126 184.77 154.126 187.141 154.126C187.882 154.126 188.326 153.977 188.178 153.085C188.178 151.002 188.178 149.068 188.178 146.985C188.326 145.795 188.03 145.646 186.993 145.646Z"
          fill="#E9C716"/>
    <path d="M128.761 145.646C128.761 145.795 128.761 145.795 128.761 145.646C126.39 145.646 124.019 145.646 121.5 145.646C120.315 145.646 120.315 145.795 120.315 146.836C120.315 148.919 120.315 151.002 120.315 153.085C120.315 153.828 120.611 153.977 121.204 153.977C126.242 153.977 131.28 153.977 136.318 153.977C137.058 153.977 137.355 153.68 137.355 152.936C137.355 150.853 137.355 148.77 137.355 146.688C137.355 145.795 137.058 145.497 136.169 145.497C133.651 145.795 131.132 145.646 128.761 145.646Z"
          fill="#E9C716"/>
    <path d="M189.067 145.646C191.438 145.646 193.808 145.646 196.179 145.646C196.624 145.646 196.772 145.349 196.772 144.902C196.772 142.522 196.772 140.142 196.772 137.612C196.772 137.166 196.624 137.017 196.031 137.017C193.66 137.017 191.289 137.017 189.067 137.017C188.326 137.017 188.178 137.315 188.178 137.91C188.178 139.1 188.178 140.29 188.178 141.332C188.178 142.522 188.178 143.563 188.178 144.753C188.326 145.349 188.474 145.646 189.067 145.646Z"
          fill="#E9C716"/>
    <path d="M204.477 137.017C205.069 137.017 205.366 136.72 205.366 136.274C205.366 133.893 205.366 131.662 205.366 129.281C205.366 128.686 205.069 128.537 204.477 128.537C202.254 128.537 200.032 128.537 197.809 128.537C197.216 128.537 196.92 128.835 196.92 129.579C196.92 131.662 196.92 133.893 196.92 135.976C196.92 136.72 197.216 137.017 197.957 137.017C199.143 137.017 200.18 137.017 201.365 137.017C202.402 137.017 203.439 137.017 204.477 137.017Z"
          fill="#E9C716"/>
    <path d="M171.435 21.5717C171.435 22.613 171.435 23.8032 171.435 24.8446C171.435 25.4397 171.583 25.5885 172.027 25.5885C174.398 25.5885 176.769 25.5885 178.991 25.5885C179.436 25.5885 179.584 25.2909 179.584 24.8446C179.584 22.4643 179.584 20.2327 179.584 17.8524C179.584 17.2573 179.436 17.1086 178.843 17.1086C176.621 17.1086 174.546 17.1086 172.324 17.1086C171.583 17.1086 171.435 17.4061 171.435 18.0012C171.583 19.1913 171.435 20.3815 171.435 21.5717Z"
          fill="#235071"/>
</svg>
